<?xml version="1.0" encoding="utf-8"?>
<!-- Generator: Adobe Illustrator 17.0.0, SVG Export Plug-In . SVG Version: 6.00 Build 0)  -->
<!DOCTYPE svg PUBLIC "-//W3C//DTD SVG 1.1//EN" "http://www.w3.org/Graphics/SVG/1.1/DTD/svg11.dtd">
<svg version="1.1" id="Layer_1" xmlns="http://www.w3.org/2000/svg" xmlns:xlink="http://www.w3.org/1999/xlink" x="0px" y="0px"
	 width="463px" height="225px" viewBox="0 0 463 225" enable-background="new 0 0 463 225" xml:space="preserve">
<g>
	<g>
		<g>
			<rect x="4.122" y="71.67" fill="#595959" width="24.59" height="106.761"/>
		</g>
	</g>
	<g>
		<g>
			<polygon fill="#757575" points="421.085,125.677 458.404,178.436 429.606,178.436 406.687,146.034 383.767,178.436 
				354.97,178.436 392.288,125.677 354.269,71.928 383.056,71.928 406.687,105.331 430.297,71.928 459.105,71.928 			"/>
		</g>
	</g>
	<g>
		<g>
			<path fill="#595959" d="M219.787,5.38v78.019l-3.431-2.549c-8.294-6.164-18.018-9.412-28.14-9.412
				c-27.688,0-50.213,24.633-50.213,54.913c0,30.281,22.525,54.914,50.213,54.914c10.101,0,19.836-3.249,28.14-9.401l3.431-2.538
				v9.111h24.569V5.38H219.787z M219.798,129.514c-1,16.641-13.123,28.732-28.828,28.732c-16.404,0-29.742-14.253-29.742-31.765
				c0-17.523,13.338-31.786,29.742-31.786c15.146,0,27.806,13.328,28.828,30.345c0.032,0.764,0.065,1.549,0.065,2.281
				S219.841,128.771,219.798,129.514z"/>
		</g>
	</g>
	<g>
		<g>
			<path fill="#595959" d="M128.139,112.98v65.692h-24.601v-59.711c0-9.595-4.088-23.87-15.35-23.87
				c-16.2,0-25.117,12.424-25.117,34.971v48.61h-24.59V72.158h24.59v19.19l4.023-7.089c2.764-4.884,11.241-12.101,20.621-12.101
				C125.224,72.158,128.139,103.407,128.139,112.98z"/>
		</g>
	</g>
	<path fill="#757575" d="M126.71,190.229c-1.798-1.641-4.639-2.524-8.487-2.524c-3.133,0-5.584,0.284-7.469,0.554v29.857h3.894
		v-12.112c0.902,0.217,1.989,0.244,3.136,0.244c3.814,0,7.169-1.1,9.212-3.282c1.55-1.561,2.342-3.721,2.342-6.449
		C129.338,193.839,128.366,191.657,126.71,190.229L126.71,190.229z M117.899,203.139c-1.306,0-2.379-0.08-3.251-0.284v-11.758
		c0.692-0.133,1.989-0.31,3.672-0.31c4.289,0,7.134,1.943,7.134,5.903C125.454,200.846,122.574,203.139,117.899,203.139
		L117.899,203.139z"/>
	<path fill="#757575" d="M154.5,195.932c-2.628,0-5.007,1.845-6.003,4.75h-0.188l-0.115-4.236h-3.455
		c0.151,1.996,0.184,4.209,0.184,6.777v14.893h3.879V206.55c0-0.692,0.122-1.291,0.186-1.836c0.544-2.945,2.524-5.074,5.296-5.074
		c0.539,0,0.934,0.08,1.331,0.146v-3.721C155.243,195.972,154.93,195.932,154.5,195.932L154.5,195.932z"/>
	<path fill="#757575" d="M179.477,195.932c-5.976,0-10.733,4.249-10.733,11.514c0,6.826,4.511,11.132,10.381,11.132
		c5.246,0,10.793-3.49,10.793-11.474C189.917,200.465,185.708,195.932,179.477,195.932L179.477,195.932z M179.297,215.615
		c-3.857,0-6.591-3.539-6.591-8.307c0-4.085,2.022-8.431,6.706-8.431c4.639,0,6.478,4.657,6.478,8.365
		C185.89,212.103,183.081,215.615,179.297,215.615L179.297,215.615z"/>
	<path fill="#757575" d="M216.02,215.403c-4.28,0-7.531-3.087-7.531-8.094c0-4.546,2.701-8.201,7.675-8.201
		c2.155,0,3.637,0.488,4.562,1.02l0.907-3.043c-1.087-0.501-3.129-1.113-5.469-1.113c-7.098,0-11.64,4.861-11.64,11.514
		c0,6.622,4.26,11.048,10.769,11.048c2.912,0,5.182-0.732,6.223-1.246l-0.687-2.958C219.726,214.83,218.249,215.403,216.02,215.403
		L216.02,215.403z"/>
	<path fill="#757575" d="M255.469,212.196v-15.749h-3.969v13.279c0,0.732-0.098,1.455-0.322,2.022
		c-0.718,1.752-2.548,3.597-5.216,3.597c-3.557,0-4.821-2.799-4.821-6.91v-11.988h-3.925v12.667c0,7.589,4.065,9.465,7.453,9.465
		c3.852,0,6.156-2.271,7.156-4.018h0.113l0.211,3.557h3.493C255.509,216.378,255.469,214.436,255.469,212.196L255.469,212.196z"/>
	<path fill="#757575" d="M282.783,195.932c-2.661,0-5.036,1.845-6.012,4.75h-0.18l-0.144-4.236h-3.415
		c0.104,1.996,0.175,4.209,0.175,6.777v14.893h3.89V206.55c0-0.692,0.075-1.291,0.173-1.836c0.543-2.945,2.486-5.074,5.296-5.074
		c0.506,0,0.936,0.08,1.337,0.146v-3.721C283.537,195.972,283.218,195.932,282.783,195.932L282.783,195.932z"/>
	<path fill="#757575" d="M316.115,206.155c0-4.005-1.869-10.223-8.93-10.223c-6.329,0-10.185,5.158-10.185,11.691
		c0,6.529,3.996,10.91,10.66,10.91c3.453,0,5.828-0.732,7.229-1.331l-0.679-2.834c-1.475,0.652-3.173,1.1-6.014,1.1
		c-3.923,0-7.34-2.147-7.418-7.469h15.235C316.04,207.552,316.115,206.958,316.115,206.155L316.115,206.155z M300.812,205.148
		c0.335-2.741,2.06-6.404,6.052-6.404c4.422,0,5.509,3.921,5.471,6.404H300.812z"/>
	<path fill="#757575" d="M356.036,195.932c-2.085,0-3.493,0.528-4.785,1.521c-0.901,0.679-1.772,1.614-2.455,2.852h-0.071
		c-0.938-2.581-3.165-4.373-6.127-4.373c-3.592,0-5.611,1.943-6.795,4.005h-0.142l-0.173-3.49h-3.468
		c0.146,1.778,0.182,3.61,0.182,5.881v15.789h3.854v-13.062c0-0.692,0.073-1.37,0.332-1.943c0.599-1.996,2.402-3.952,4.856-3.952
		c3.016,0,4.531,2.501,4.531,5.948v13.008h3.852v-13.403c0-0.718,0.139-1.424,0.322-1.978c0.649-1.903,2.41-3.575,4.641-3.575
		c3.174,0,4.686,2.501,4.686,6.679v12.277h3.845v-12.791C363.121,197.804,358.883,195.932,356.036,195.932L356.036,195.932z"/>
	<path fill="#757575" d="M398.576,206.155c0-4.005-1.929-10.223-9.223-10.223c-6.495,0-10.462,5.158-10.462,11.691
		c0,6.529,4.114,10.91,10.979,10.91c3.55,0,5.994-0.732,7.406-1.331l-0.703-2.834c-1.515,0.652-3.267,1.1-6.148,1.1
		c-4.08,0-7.569-2.147-7.684-7.469h15.683C398.469,207.552,398.576,206.958,398.576,206.155L398.576,206.155z M382.827,205.148
		c0.299-2.741,2.109-6.404,6.192-6.404c4.592,0,5.668,3.921,5.624,6.404H382.827z"/>
	<path fill="#757575" d="M425.147,195.932c-3.575,0-6.078,2.009-7.161,4.071h-0.071l-0.222-3.557h-3.488
		c0.104,1.778,0.175,3.61,0.175,5.881v15.789h3.932v-13.022c0-0.692,0.093-1.384,0.244-1.845c0.685-2.213,2.701-4.045,5.285-4.045
		c3.703,0,5.047,2.918,5.047,6.404v12.507h3.925v-12.968C432.814,197.724,428.165,195.932,425.147,195.932L425.147,195.932z"/>
	<polygon fill="#757575" points="454.976,196.447 454.976,190.229 451.131,190.3 451.131,196.447 447.745,196.447 447.745,199.436 
		451.131,199.436 451.131,217.895 454.976,217.895 454.976,199.436 458.757,199.436 458.757,196.447 	"/>
	<g>
		<rect x="4.09" y="33.526" fill="#595959" width="24.741" height="24.741"/>
	</g>
	<g>
		<path fill="#757575" d="M313.843,133.188v-0.021h37.541c0.441-2.818,0.667-5.701,0.667-8.649
			c0-29.011-21.966-52.525-49.062-52.525c-27.107,0-49.072,23.514-49.072,52.525c0,29.011,21.965,52.536,49.072,52.536
			c20.298,0,37.724-13.209,45.179-32.034h-24.45c-4.238,5.314-11.65,8.821-20.072,8.821c-13.177,0-23.88-8.595-23.88-19.201
			c0-0.484,0.032-0.968,0.075-1.452H313.843z M303.28,94.571c11.876,0,21.621,7.465,22.492,16.953h-44.996
			C281.659,102.036,291.405,94.571,303.28,94.571z"/>
	</g>
</g>
</svg>
