<?xml version="1.0" encoding="UTF-8" standalone="no"?>
<!DOCTYPE svg PUBLIC "-//W3C//DTD SVG 1.1//EN" "http://www.w3.org/Graphics/SVG/1.1/DTD/svg11.dtd">
<svg version="1.1" xmlns="http://www.w3.org/2000/svg" xmlns:xlink="http://www.w3.org/1999/xlink" preserveAspectRatio="xMidYMid meet" viewBox="0 0 640 640" width="640" height="640"><defs><path d="M28.71 71.67C28.71 71.67 28.71 71.67 28.71 71.67C28.71 135.73 28.71 171.31 28.71 178.43C28.71 178.43 28.71 178.43 28.71 178.43C13.96 178.43 5.76 178.43 4.12 178.43C4.12 178.43 4.12 178.43 4.12 178.43C4.12 114.37 4.12 78.79 4.12 71.67C4.12 71.67 4.12 71.67 4.12 71.67C18.88 71.67 27.07 71.67 28.71 71.67Z" id="b2hQ5uIUnt"></path><path d="M458.06 178.43L429.26 178.43L406.34 146.03L383.42 178.43L354.62 178.43L391.94 125.67L353.92 71.92L382.71 71.92L406.34 105.33L429.95 71.92L458.76 71.92L420.74 125.67L458.06 178.43Z" id="cpuIwBBYf"></path><path d="M219.79 83.4C217.73 81.87 216.58 81.02 216.36 80.85C208.06 74.69 198.34 71.44 188.22 71.44C160.53 71.44 138 96.07 138 126.35C138 156.63 160.53 181.27 188.22 181.27C198.32 181.27 208.05 178.02 216.36 171.86C216.58 171.69 217.73 170.85 219.79 169.33L219.79 178.44L244.36 178.44L244.36 5.38L219.79 5.38L219.79 83.4ZM190.97 158.25C174.57 158.25 161.23 143.99 161.23 126.48C161.23 108.96 174.57 94.7 190.97 94.7C206.12 94.7 218.78 108.02 219.8 125.04C219.83 125.8 219.86 126.59 219.86 127.32C219.86 128.05 219.84 128.77 219.8 129.51C218.8 146.16 206.68 158.25 190.97 158.25Z" id="c4vxFLj0h"></path><path d="M132.52 178.43L107.92 178.43C107.92 142.6 107.92 122.7 107.92 118.72C107.92 109.12 103.83 94.85 92.57 94.85C76.37 94.85 67.45 107.27 67.45 129.82C67.45 133.06 67.45 149.26 67.45 178.43L42.86 178.43L42.86 71.92L67.45 71.92L67.45 91.11C69.86 86.85 71.21 84.49 71.47 84.02C74.24 79.13 82.71 71.92 92.09 71.92C129.6 71.92 132.52 103.17 132.52 112.74C132.52 121.5 132.52 143.4 132.52 178.43Z" id="f5gckG7CFv"></path><path d="M118.22 187.71C115.09 187.71 112.64 187.99 110.75 188.26C110.75 190.25 110.75 200.2 110.75 218.12L114.65 218.12C114.65 210.85 114.65 206.81 114.65 206C115.55 206.22 116.64 206.25 117.78 206.25C121.6 206.25 124.95 205.15 127 202.97C128.55 201.41 129.34 199.25 129.34 196.52C129.34 193.84 128.37 191.66 126.71 190.23C126.71 190.23 126.71 190.23 126.71 190.23C123.62 188.55 120.79 187.71 118.22 187.71ZM114.65 202.86C114.65 201.68 114.65 192.27 114.65 191.1C115.34 190.96 116.64 190.79 118.32 190.79C122.61 190.79 125.45 192.73 125.45 196.69C125.45 200.85 122.57 203.14 117.9 203.14C117.9 203.14 117.9 203.14 117.9 203.14C116.31 203.09 115.23 202.99 114.65 202.86Z" id="j1kZCW29iA"></path><path d="M148.5 200.68C148.48 200.68 148.42 200.68 148.31 200.68L148.19 196.45C146.12 196.45 144.97 196.45 144.74 196.45C144.89 198.44 144.92 200.66 144.92 203.22C144.92 204.22 144.92 209.18 144.92 218.12L148.8 218.12C148.8 211.18 148.8 207.32 148.8 206.55C148.8 205.86 148.92 205.26 148.99 204.71C149.53 201.77 151.51 199.64 154.28 199.64C154.82 199.64 155.22 199.72 155.61 199.79C155.61 199.41 155.61 196.44 155.61 196.06C155.24 195.97 154.93 195.93 154.5 195.93C154.5 195.93 154.5 195.93 154.5 195.93C151.16 197.16 149.16 198.75 148.5 200.68Z" id="c3jMCblAVC"></path><path d="M168.74 207.45C168.74 214.27 173.26 218.58 179.13 218.58C184.37 218.58 189.92 215.09 189.92 207.1C189.92 200.47 185.71 195.93 179.48 195.93C179.48 195.93 179.48 195.93 179.48 195.93C172.32 198.76 168.74 202.6 168.74 207.45ZM172.71 207.31C172.71 203.22 174.73 198.88 179.41 198.88C184.05 198.88 185.89 203.53 185.89 207.24C185.89 212.1 183.08 215.62 179.3 215.62C179.3 215.62 179.3 215.62 179.3 215.62C174.9 213.26 172.71 210.49 172.71 207.31Z" id="a5yZQIR55g"></path><path d="M208.49 207.31C208.49 202.76 211.19 199.11 216.16 199.11C218.32 199.11 219.8 199.6 220.73 200.13C220.82 199.82 221.54 197.39 221.63 197.09C220.55 196.58 218.5 195.97 216.16 195.97C209.07 195.97 204.52 200.83 204.52 207.49C204.52 214.11 208.78 218.53 215.29 218.53C218.21 218.53 220.48 217.8 221.52 217.29C221.45 216.99 220.9 214.63 220.83 214.33C219.73 214.83 218.25 215.4 216.02 215.4C216.02 215.4 216.02 215.4 216.02 215.4C211 213.34 208.49 210.65 208.49 207.31Z" id="dWrN48EJn"></path><path d="M255.47 196.45L251.5 196.45C251.5 204.41 251.5 208.84 251.5 209.73C251.5 210.46 251.4 211.18 251.18 211.75C250.46 213.5 248.63 215.35 245.96 215.35C242.41 215.35 241.14 212.55 241.14 208.44C241.14 207.64 241.14 203.64 241.14 196.45L237.22 196.45C237.22 204.05 237.22 208.27 237.22 209.11C237.22 216.7 241.28 218.58 244.67 218.58C248.52 218.58 250.83 216.31 251.83 214.56C251.83 214.56 251.87 214.56 251.94 214.56L252.15 218.12C254.24 218.12 255.41 218.12 255.64 218.12C255.51 216.38 255.47 214.44 255.47 212.2C255.47 212.2 255.47 212.2 255.47 212.2L255.47 196.45Z" id="a11VLpF28v"></path><path d="M276.77 200.68C276.76 200.68 276.7 200.68 276.59 200.68L276.45 196.45C274.4 196.45 273.26 196.45 273.03 196.45C273.14 198.44 273.21 200.66 273.21 203.22C273.21 204.22 273.21 209.18 273.21 218.12L277.1 218.12C277.1 211.18 277.1 207.32 277.1 206.55C277.1 205.86 277.17 205.26 277.27 204.71C277.81 201.77 279.76 199.64 282.57 199.64C283.07 199.64 283.5 199.72 283.9 199.79C283.9 199.41 283.9 196.44 283.9 196.06C283.54 195.97 283.22 195.93 282.78 195.93C282.78 195.93 282.78 195.93 282.78 195.93C279.43 197.16 277.42 198.75 276.77 200.68Z" id="c4nZl8W3ap"></path><path d="M307.19 195.93C300.86 195.93 297 201.09 297 207.62C297 214.15 301 218.53 307.66 218.53C311.11 218.53 313.49 217.8 314.89 217.2C314.82 216.92 314.28 214.65 314.21 214.37C312.74 215.02 311.04 215.47 308.2 215.47C304.27 215.47 300.86 213.32 300.78 208C302.3 208 314.49 208 316.01 208C316.04 207.55 316.12 206.96 316.12 206.16C316.12 206.16 316.12 206.16 316.12 206.16C314.87 199.34 311.89 195.93 307.19 195.93ZM306.86 198.74C311.29 198.74 312.37 202.67 312.34 205.15C311.57 205.15 307.73 205.15 300.81 205.15C302.19 200.88 304.2 198.74 306.86 198.74Z" id="bfpmVoD4z"></path><path d="M351.25 197.45C350.35 198.13 349.48 199.07 348.8 200.3C348.79 200.3 348.73 200.3 348.73 200.3C347.79 197.72 345.56 195.93 342.6 195.93C339.01 195.93 336.99 197.88 335.8 199.94C335.79 199.94 335.75 199.94 335.66 199.94L335.49 196.45C333.41 196.45 332.25 196.45 332.02 196.45C332.17 198.22 332.2 200.06 332.2 202.33C332.2 203.38 332.2 208.64 332.2 218.12L336.06 218.12C336.06 210.28 336.06 205.93 336.06 205.05C336.06 204.36 336.13 203.68 336.39 203.11C336.99 201.12 338.79 199.16 341.24 199.16C344.26 199.16 345.77 201.66 345.77 205.11C345.77 205.98 345.77 210.31 345.77 218.12L349.63 218.12C349.63 210.07 349.63 205.61 349.63 204.71C349.63 203.99 349.77 203.29 349.95 202.73C350.6 200.83 352.36 199.16 354.59 199.16C357.76 199.16 359.28 201.66 359.28 205.84C359.28 206.66 359.28 210.75 359.28 218.12L363.12 218.12C363.12 210.44 363.12 206.18 363.12 205.32C363.12 197.8 358.88 195.93 356.04 195.93C356.04 195.93 356.04 195.93 356.04 195.93C353.71 196.28 352.11 196.79 351.25 197.45Z" id="apeM98M5E"></path><path d="M389.35 195.93C382.86 195.93 378.89 201.09 378.89 207.62C378.89 214.15 383.01 218.53 389.87 218.53C393.42 218.53 395.86 217.8 397.28 217.2C397.21 216.92 396.64 214.65 396.57 214.37C395.06 215.02 393.31 215.47 390.43 215.47C386.35 215.47 382.86 213.32 382.74 208C384.31 208 396.86 208 398.42 208C398.47 207.55 398.58 206.96 398.58 206.16C398.58 206.16 398.58 206.16 398.58 206.16C397.29 199.34 394.22 195.93 389.35 195.93ZM389.02 198.74C393.61 198.74 394.69 202.67 394.64 205.15C393.86 205.15 389.92 205.15 382.83 205.15C384.23 200.88 386.3 198.74 389.02 198.74Z" id="a3ct7OpJxZ"></path><path d="M417.99 200C417.98 200 417.96 200 417.92 200L417.69 196.45C415.6 196.45 414.44 196.45 414.21 196.45C414.31 198.22 414.38 200.06 414.38 202.33C414.38 203.38 414.38 208.64 414.38 218.12L418.31 218.12C418.31 210.3 418.31 205.96 418.31 205.09C418.31 204.4 418.41 203.71 418.56 203.25C419.24 201.04 421.26 199.2 423.84 199.2C427.54 199.2 428.89 202.12 428.89 205.61C428.89 206.44 428.89 210.61 428.89 218.12L432.81 218.12C432.81 210.33 432.81 206.01 432.81 205.15C432.81 197.72 428.17 195.93 425.15 195.93C425.15 195.93 425.15 195.93 425.15 195.93C421.1 197.27 418.71 198.63 417.99 200Z" id="cBvwjn2XX"></path><path d="M454.98 190.23L451.13 190.3L451.13 196.45L447.75 196.45L447.75 199.44L451.13 199.44L451.13 217.9L454.98 217.9L454.98 199.44L458.76 199.44L458.76 196.45L454.98 196.45L454.98 190.23Z" id="a152nX1iC5"></path><path d="M28.83 33.53C28.83 33.53 28.83 33.53 28.83 33.53C28.83 48.37 28.83 56.62 28.83 58.27C28.83 58.27 28.83 58.27 28.83 58.27C13.99 58.27 5.74 58.27 4.09 58.27C4.09 58.27 4.09 58.27 4.09 58.27C4.09 43.42 4.09 35.18 4.09 33.53C4.09 33.53 4.09 33.53 4.09 33.53C18.93 33.53 27.18 33.53 28.83 33.53Z" id="c2lbWMd6Y"></path><path d="M313.84 133.17C336.37 133.17 348.88 133.17 351.38 133.17C351.83 130.35 352.05 127.47 352.05 124.52C352.05 95.51 330.09 71.99 302.99 71.99C275.88 71.99 253.92 95.51 253.92 124.52C253.92 153.53 275.88 177.05 302.99 177.05C323.29 177.05 340.71 163.85 348.17 145.02C345.72 145.02 326.16 145.02 323.72 145.02C319.48 150.33 312.07 153.84 303.65 153.84C290.47 153.84 279.77 145.25 279.77 134.64C279.77 134.16 279.8 133.67 279.84 133.19C282.11 133.19 293.44 133.19 313.84 133.19L313.84 133.17ZM325.77 111.52C321.27 111.52 285.28 111.52 280.78 111.52C281.66 102.04 291.4 94.57 303.28 94.57C315.16 94.57 324.9 102.04 325.77 111.52Z" id="c46G020KS0"></path></defs><g><g><g><use xlink:href="#b2hQ5uIUnt" opacity="1" fill="#ffffff" fill-opacity="1"></use><g><use xlink:href="#b2hQ5uIUnt" opacity="1" fill-opacity="0" stroke="#000000" stroke-width="1" stroke-opacity="0"></use></g></g><g><use xlink:href="#cpuIwBBYf" opacity="1" fill="#ffffff" fill-opacity="1"></use><g><use xlink:href="#cpuIwBBYf" opacity="1" fill-opacity="0" stroke="#000000" stroke-width="1" stroke-opacity="0"></use></g></g><g><use xlink:href="#c4vxFLj0h" opacity="1" fill="#ffffff" fill-opacity="1"></use><g><use xlink:href="#c4vxFLj0h" opacity="1" fill-opacity="0" stroke="#000000" stroke-width="1" stroke-opacity="0"></use></g></g><g><use xlink:href="#f5gckG7CFv" opacity="1" fill="#ffffff" fill-opacity="1"></use><g><use xlink:href="#f5gckG7CFv" opacity="1" fill-opacity="0" stroke="#000000" stroke-width="1" stroke-opacity="0"></use></g></g><g><use xlink:href="#j1kZCW29iA" opacity="1" fill="#ffffff" fill-opacity="1"></use><g><use xlink:href="#j1kZCW29iA" opacity="1" fill-opacity="0" stroke="#000000" stroke-width="1" stroke-opacity="0"></use></g></g><g><use xlink:href="#c3jMCblAVC" opacity="1" fill="#ffffff" fill-opacity="1"></use><g><use xlink:href="#c3jMCblAVC" opacity="1" fill-opacity="0" stroke="#000000" stroke-width="1" stroke-opacity="0"></use></g></g><g><use xlink:href="#a5yZQIR55g" opacity="1" fill="#ffffff" fill-opacity="1"></use><g><use xlink:href="#a5yZQIR55g" opacity="1" fill-opacity="0" stroke="#000000" stroke-width="1" stroke-opacity="0"></use></g></g><g><use xlink:href="#dWrN48EJn" opacity="1" fill="#ffffff" fill-opacity="1"></use><g><use xlink:href="#dWrN48EJn" opacity="1" fill-opacity="0" stroke="#000000" stroke-width="1" stroke-opacity="0"></use></g></g><g><use xlink:href="#a11VLpF28v" opacity="1" fill="#ffffff" fill-opacity="1"></use><g><use xlink:href="#a11VLpF28v" opacity="1" fill-opacity="0" stroke="#000000" stroke-width="1" stroke-opacity="0"></use></g></g><g><use xlink:href="#c4nZl8W3ap" opacity="1" fill="#ffffff" fill-opacity="1"></use><g><use xlink:href="#c4nZl8W3ap" opacity="1" fill-opacity="0" stroke="#000000" stroke-width="1" stroke-opacity="0"></use></g></g><g><use xlink:href="#bfpmVoD4z" opacity="1" fill="#ffffff" fill-opacity="1"></use><g><use xlink:href="#bfpmVoD4z" opacity="1" fill-opacity="0" stroke="#000000" stroke-width="1" stroke-opacity="0"></use></g></g><g><use xlink:href="#apeM98M5E" opacity="1" fill="#ffffff" fill-opacity="1"></use><g><use xlink:href="#apeM98M5E" opacity="1" fill-opacity="0" stroke="#000000" stroke-width="1" stroke-opacity="0"></use></g></g><g><use xlink:href="#a3ct7OpJxZ" opacity="1" fill="#ffffff" fill-opacity="1"></use><g><use xlink:href="#a3ct7OpJxZ" opacity="1" fill-opacity="0" stroke="#000000" stroke-width="1" stroke-opacity="0"></use></g></g><g><use xlink:href="#cBvwjn2XX" opacity="1" fill="#ffffff" fill-opacity="1"></use><g><use xlink:href="#cBvwjn2XX" opacity="1" fill-opacity="0" stroke="#000000" stroke-width="1" stroke-opacity="0"></use></g></g><g><use xlink:href="#a152nX1iC5" opacity="1" fill="#ffffff" fill-opacity="1"></use><g><use xlink:href="#a152nX1iC5" opacity="1" fill-opacity="0" stroke="#000000" stroke-width="1" stroke-opacity="0"></use></g></g><g><use xlink:href="#c2lbWMd6Y" opacity="1" fill="#ffffff" fill-opacity="1"></use><g><use xlink:href="#c2lbWMd6Y" opacity="1" fill-opacity="0" stroke="#000000" stroke-width="1" stroke-opacity="0"></use></g></g><g><use xlink:href="#c46G020KS0" opacity="1" fill="#ffffff" fill-opacity="1"></use><g><use xlink:href="#c46G020KS0" opacity="1" fill-opacity="0" stroke="#000000" stroke-width="1" stroke-opacity="0"></use></g></g></g></g></svg>